ffmpeg started on 2026-01-20 at 14:14:22
Report written to "D:\Convert\FFMetrics\reports\ssim_report-6.txt"
Log level: 32
Command line:
ffmpeg -hide_banner -nostdin -r 24000/1001 -i "F:\\Convert\\files\\[DC] Make Heroine ga Oosugiru - 07_Telegram_HEVC(207).mkv" -r 24000/1001 -i "F:\\Convert\\files\\[DC] Make Heroine ga Oosugiru - 07_Telegram.mp4" -lavfi "[0:v]settb=AVTB,setpts=PTS-STARTPTS,format=pix_fmts=yuv420p10le,fps=24000/1001,scale=1920:1080:flags=lanczos:param0=3:out_range=limited:out_color_matrix=bt709:out_chroma_loc=left,setsar=1/1,setdar=(1920/1080)*(1/1),colorspace=format=yuv420p10:range=tv:primaries=bt709:trc=bt709:space=bt709:fast=0[main];[1:v]settb=AVTB,setpts=PTS-STARTPTS,format=pix_fmts=yuv420p,fps=24000/1001,scale=1920:1080:flags=lanczos:param0=3:out_range=limited:out_color_matrix=bt709:out_chroma_loc=left,setsar=1.000,setdar=1.778,colorspace=format=yuv420p:range=tv:primaries=bt709:trc=bt709:space=bt709:fast=0[ref];[main][ref]ssim=eof_action=endall:stats_file='D\\:/Convert/FFMetrics/logs/ssim_logfile-6.txt'" -f null -
Input #0, matroska,webm, from 'F:\Convert\files\[DC] Make Heroine ga Oosugiru - 07_Telegram_HEVC(207).mkv':
  Metadata:
    COMPATIBLE_BRANDS: isomiso2avc1mp41
    MAJOR_BRAND     : isom
    MINOR_VERSION   : 512
    ENCODER         : Lavf61.7.100
  Duration: 00:24:06.79, start: -0.021000, bitrate: 896 kb/s
  Stream #0:0: Video: hevc (Main 10), yuv420p10le(tv, bt709, progressive), 1920x1080 [SAR 1:1 DAR 16:9], 23.98 fps, 23.98 tbr, 1k tbn (default)
      Metadata:
        HANDLER_NAME    : VideoHandler
        VENDOR_ID       : [0][0][0][0]
        ENCODER         : Lavc61.19.100 libx265
        BPS             : 699393
        DURATION        : 00:24:06.569708333
        NUMBER_OF_FRAMES: 34683
        NUMBER_OF_BYTES : 126465049
        _STATISTICS_WRITING_APP: mkvpropedit v94.0 ('Initiate') 64-bit
        _STATISTICS_WRITING_DATE_UTC: 2026-01-20 09:27:29
        _STATISTICS_TAGS: BPS DURATION NUMBER_OF_FRAMES NUMBER_OF_BYTES
  Stream #0:1: Audio: aac (LC), 48000 Hz, stereo, fltp (default)
      Metadata:
        HANDLER_NAME    : SoundHandler
        VENDOR_ID       : [0][0][0][0]
        ENCODER         : Lavc61.19.100 aac
        BPS             : 193194
        DURATION        : 00:24:06.784000000
        NUMBER_OF_FRAMES: 67819
        NUMBER_OF_BYTES : 34938755
        _STATISTICS_WRITING_APP: mkvpropedit v94.0 ('Initiate') 64-bit
        _STATISTICS_WRITING_DATE_UTC: 2026-01-20 09:27:29
        _STATISTICS_TAGS: BPS DURATION NUMBER_OF_FRAMES NUMBER_OF_BYTES
Input #1, mov,mp4,m4a,3gp,3g2,mj2, from 'F:\Convert\files\[DC] Make Heroine ga Oosugiru - 07_Telegram.mp4':
  Metadata:
    major_brand     : isom
    minor_version   : 512
    compatible_brands: isomiso2avc1mp41
    encoder         : Lavf60.16.100
  Duration: 00:24:06.74, start: 0.000000, bitrate: 3764 kb/s
  Stream #1:0[0x1](und): Video: h264 (High) (avc1 / 0x31637661), yuv420p(tv, bt709, progressive), 1920x1080 [SAR 1:1 DAR 16:9], 3616 kb/s, 23.98 fps, 23.98 tbr, 24k tbn (default)
      Metadata:
        handler_name    : VideoHandler
        vendor_id       : [0][0][0][0]
        encoder         : Lavc60.31.102 h264_qsv
  Stream #1:1[0x2](und): Audio: aac (HE-AACv2) (mp4a / 0x6134706D), 48000 Hz, stereo, fltp, 144 kb/s (default)
      Metadata:
        handler_name    : SoundHandler
        vendor_id       : [0][0][0][0]
Stream mapping:
  Stream #0:0 (hevc) -> settb:default
  Stream #1:0 (h264) -> settb:default
  ssim:default -> Stream #0:0 (wrapped_avframe)
  Stream #0:1 -> #0:1 (aac (native) -> pcm_s16le (native))
Output #0, null, to 'pipe:':
  Metadata:
    COMPATIBLE_BRANDS: isomiso2avc1mp41
    MAJOR_BRAND     : isom
    MINOR_VERSION   : 512
    encoder         : Lavf61.7.100
  Stream #0:0: Video: wrapped_avframe, yuv420p10le(tv, bt709, progressive), 1920x1080 [SAR 1:1 DAR 16:9], q=2-31, 200 kb/s, 23.98 fps, 23.98 tbn
      Metadata:
        encoder         : Lavc61.19.100 wrapped_avframe
  Stream #0:1: Audio: pcm_s16le, 48000 Hz, stereo, s16, 1536 kb/s (default)
      Metadata:
        HANDLER_NAME    : SoundHandler
        VENDOR_ID       : [0][0][0][0]
        _STATISTICS_TAGS: BPS DURATION NUMBER_OF_FRAMES NUMBER_OF_BYTES
        BPS             : 193194
        DURATION        : 00:24:06.784000000
        NUMBER_OF_FRAMES: 67819
        NUMBER_OF_BYTES : 34938755
        _STATISTICS_WRITING_APP: mkvpropedit v94.0 ('Initiate') 64-bit
        _STATISTICS_WRITING_DATE_UTC: 2026-01-20 09:27:29
        encoder         : Lavc61.19.100 pcm_s16le
frame=  138 fps=0.0 q=-0.0 size=N/A time=00:00:05.75 bitrate=N/A speed=11.1x    frame=  325 fps=316 q=-0.0 size=N/A time=00:00:13.55 bitrate=N/A speed=13.2x    frame=  519 fps=337 q=-0.0 size=N/A time=00:00:21.64 bitrate=N/A speed=14.1x    frame=  720 fps=349 q=-0.0 size=N/A time=00:00:30.03 bitrate=N/A speed=14.5x    frame=  903 fps=351 q=-0.0 size=N/A time=00:00:37.66 bitrate=N/A speed=14.6x    frame= 1056 fps=340 q=-0.0 size=N/A time=00:00:44.04 bitrate=N/A speed=14.2x    frame= 1216 fps=335 q=-0.0 size=N/A time=00:00:50.71 bitrate=N/A speed=  14x    frame= 1390 fps=336 q=-0.0 size=N/A time=00:00:57.97 bitrate=N/A speed=  14x    frame= 1542 fps=331 q=-0.0 size=N/A time=00:01:04.31 bitrate=N/A speed=13.8x    frame= 1695 fps=328 q=-0.0 size=N/A time=00:01:10.69 bitrate=N/A speed=13.7x    frame= 1869 fps=329 q=-0.0 size=N/A time=00:01:17.95 bitrate=N/A speed=13.7x    frame= 2039 fps=329 q=-0.0 size=N/A time=00:01:25.04 bitrate=N/A speed=13.7x    frame= 2149 fps=320 q=-0.0 size=N/A time=00:01:29.63 bitrate=N/A speed=13.3x    frame= 2310 fps=319 q=-0.0 size=N/A time=00:01:36.34 bitrate=N/A speed=13.3x    frame= 2455 fps=317 q=-0.0 size=N/A time=00:01:42.39 bitrate=N/A speed=13.2x    frame= 2599 fps=315 q=-0.0 size=N/A time=00:01:48.39 bitrate=N/A speed=13.1x    frame= 2782 fps=317 q=-0.0 size=N/A time=00:01:56.03 bitrate=N/A speed=13.2x    frame= 2956 fps=318 q=-0.0 size=N/A time=00:02:03.28 bitrate=N/A speed=13.3x    frame= 3146 fps=321 q=-0.0 size=N/A time=00:02:11.21 bitrate=N/A speed=13.4x    frame= 3343 fps=323 q=-0.0 size=N/A time=00:02:19.43 bitrate=N/A speed=13.5x    frame= 3543 fps=327 q=-0.0 size=N/A time=00:02:27.77 bitrate=N/A speed=13.6x    frame= 3739 fps=329 q=-0.0 size=N/A time=00:02:35.94 bitrate=N/A speed=13.7x    frame= 3938 fps=331 q=-0.0 size=N/A time=00:02:44.24 bitrate=N/A speed=13.8x    frame= 4131 fps=333 q=-0.0 size=N/A time=00:02:52.29 bitrate=N/A speed=13.9x    frame= 4325 fps=335 q=-0.0 size=N/A time=00:03:00.38 bitrate=N/A speed=  14x    frame= 4517 fps=337 q=-0.0 size=N/A time=00:03:08.39 bitrate=N/A speed=  14x    frame= 4717 fps=338 q=-0.0 size=N/A time=00:03:16.73 bitrate=N/A speed=14.1x    frame= 4907 fps=340 q=-0.0 size=N/A time=00:03:24.66 bitrate=N/A speed=14.2x    frame= 5097 fps=341 q=-0.0 size=N/A time=00:03:32.58 bitrate=N/A speed=14.2x    frame= 5292 fps=342 q=-0.0 size=N/A time=00:03:40.72 bitrate=N/A speed=14.2x    frame= 5485 fps=343 q=-0.0 size=N/A time=00:03:48.77 bitrate=N/A speed=14.3x    frame= 5680 fps=344 q=-0.0 size=N/A time=00:03:56.90 bitrate=N/A speed=14.3x    frame= 5874 fps=345 q=-0.0 size=N/A time=00:04:04.99 bitrate=N/A speed=14.4x    frame= 6066 fps=346 q=-0.0 size=N/A time=00:04:13.00 bitrate=N/A speed=14.4x    frame= 6255 fps=346 q=-0.0 size=N/A time=00:04:20.88 bitrate=N/A speed=14.4x    frame= 6458 fps=347 q=-0.0 size=N/A time=00:04:29.35 bitrate=N/A speed=14.5x    frame= 6651 fps=348 q=-0.0 size=N/A time=00:04:37.40 bitrate=N/A speed=14.5x    frame= 6846 fps=349 q=-0.0 size=N/A time=00:04:45.53 bitrate=N/A speed=14.6x    frame= 7042 fps=350 q=-0.0 size=N/A time=00:04:53.71 bitrate=N/A speed=14.6x    frame= 7228 fps=350 q=-0.0 size=N/A time=00:05:01.46 bitrate=N/A speed=14.6x    frame= 7418 fps=351 q=-0.0 size=N/A time=00:05:09.39 bitrate=N/A speed=14.6x    frame= 7606 fps=351 q=-0.0 size=N/A time=00:05:17.23 bitrate=N/A speed=14.6x    frame= 7793 fps=351 q=-0.0 size=N/A time=00:05:25.03 bitrate=N/A speed=14.7x    frame= 7979 fps=352 q=-0.0 size=N/A time=00:05:32.79 bitrate=N/A speed=14.7x    frame= 8171 fps=352 q=-0.0 size=N/A time=00:05:40.79 bitrate=N/A speed=14.7x    frame= 8358 fps=352 q=-0.0 size=N/A time=00:05:48.59 bitrate=N/A speed=14.7x    frame= 8552 fps=353 q=-0.0 size=N/A time=00:05:56.68 bitrate=N/A speed=14.7x    frame= 8750 fps=353 q=-0.0 size=N/A time=00:06:04.94 bitrate=N/A speed=14.7x    frame= 8936 fps=353 q=-0.0 size=N/A time=00:06:12.70 bitrate=N/A speed=14.7x    frame= 9134 fps=354 q=-0.0 size=N/A time=00:06:20.96 bitrate=N/A speed=14.8x    frame= 9325 fps=354 q=-0.0 size=N/A time=00:06:28.93 bitrate=N/A speed=14.8x    frame= 9521 fps=355 q=-0.0 size=N/A time=00:06:37.10 bitrate=N/A speed=14.8x    frame= 9717 fps=355 q=-0.0 size=N/A time=00:06:45.27 bitrate=N/A speed=14.8x    frame= 9901 fps=355 q=-0.0 size=N/A time=00:06:52.95 bitrate=N/A speed=14.8x    frame=10100 fps=356 q=-0.0 size=N/A time=00:07:01.25 bitrate=N/A speed=14.8x    frame=10292 fps=356 q=-0.0 size=N/A time=00:07:09.26 bitrate=N/A speed=14.8x    frame=10484 fps=356 q=-0.0 size=N/A time=00:07:17.27 bitrate=N/A speed=14.9x    frame=10677 fps=357 q=-0.0 size=N/A time=00:07:25.31 bitrate=N/A speed=14.9x    frame=10862 fps=357 q=-0.0 size=N/A time=00:07:33.03 bitrate=N/A speed=14.9x    frame=11054 fps=357 q=-0.0 size=N/A time=00:07:41.04 bitrate=N/A speed=14.9x    frame=11247 fps=357 q=-0.0 size=N/A time=00:07:49.09 bitrate=N/A speed=14.9x    frame=11441 fps=357 q=-0.0 size=N/A time=00:07:57.18 bitrate=N/A speed=14.9x    frame=11632 fps=358 q=-0.0 size=N/A time=00:08:05.15 bitrate=N/A speed=14.9x    frame=11821 fps=358 q=-0.0 size=N/A time=00:08:13.03 bitrate=N/A speed=14.9x    frame=12011 fps=358 q=-0.0 size=N/A time=00:08:20.95 bitrate=N/A speed=14.9x    frame=12200 fps=358 q=-0.0 size=N/A time=00:08:28.84 bitrate=N/A speed=14.9x    frame=12389 fps=358 q=-0.0 size=N/A time=00:08:36.72 bitrate=N/A speed=14.9x    frame=12585 fps=358 q=-0.0 size=N/A time=00:08:44.89 bitrate=N/A speed=14.9x    frame=12773 fps=358 q=-0.0 size=N/A time=00:08:52.74 bitrate=N/A speed=  15x    frame=12961 fps=359 q=-0.0 size=N/A time=00:09:00.58 bitrate=N/A speed=  15x    frame=13152 fps=359 q=-0.0 size=N/A time=00:09:08.54 bitrate=N/A speed=  15x    frame=13342 fps=359 q=-0.0 size=N/A time=00:09:16.47 bitrate=N/A speed=  15x    frame=13519 fps=359 q=-0.0 size=N/A time=00:09:23.85 bitrate=N/A speed=  15x    frame=13712 fps=359 q=-0.0 size=N/A time=00:09:31.90 bitrate=N/A speed=  15x    frame=13904 fps=359 q=-0.0 size=N/A time=00:09:39.91 bitrate=N/A speed=  15x    frame=14094 fps=359 q=-0.0 size=N/A time=00:09:47.83 bitrate=N/A speed=  15x    frame=14268 fps=359 q=-0.0 size=N/A time=00:09:55.09 bitrate=N/A speed=  15x    frame=14452 fps=359 q=-0.0 size=N/A time=00:10:02.76 bitrate=N/A speed=  15x    frame=14630 fps=359 q=-0.0 size=N/A time=00:10:10.19 bitrate=N/A speed=  15x    frame=14830 fps=359 q=-0.0 size=N/A time=00:10:18.53 bitrate=N/A speed=  15x    frame=15013 fps=359 q=-0.0 size=N/A time=00:10:26.16 bitrate=N/A speed=  15x    frame=15181 fps=359 q=-0.0 size=N/A time=00:10:33.17 bitrate=N/A speed=  15x    frame=15371 fps=359 q=-0.0 size=N/A time=00:10:41.09 bitrate=N/A speed=  15x    frame=15560 fps=359 q=-0.0 size=N/A time=00:10:48.98 bitrate=N/A speed=  15x    frame=15749 fps=359 q=-0.0 size=N/A time=00:10:56.86 bitrate=N/A speed=  15x    frame=15938 fps=359 q=-0.0 size=N/A time=00:11:04.74 bitrate=N/A speed=  15x    frame=16136 fps=359 q=-0.0 size=N/A time=00:11:13.00 bitrate=N/A speed=  15x    frame=16331 fps=359 q=-0.0 size=N/A time=00:11:21.13 bitrate=N/A speed=  15x    frame=16525 fps=360 q=-0.0 size=N/A time=00:11:29.23 bitrate=N/A speed=  15x    frame=16724 fps=360 q=-0.0 size=N/A time=00:11:37.53 bitrate=N/A speed=  15x    frame=16928 fps=360 q=-0.0 size=N/A time=00:11:46.03 bitrate=N/A speed=  15x    frame=17116 fps=360 q=-0.0 size=N/A time=00:11:53.87 bitrate=N/A speed=  15x    frame=17305 fps=360 q=-0.0 size=N/A time=00:12:01.76 bitrate=N/A speed=  15x    frame=17481 fps=360 q=-0.0 size=N/A time=00:12:09.10 bitrate=N/A speed=  15x    frame=17662 fps=360 q=-0.0 size=N/A time=00:12:16.65 bitrate=N/A speed=  15x    frame=17853 fps=360 q=-0.0 size=N/A time=00:12:24.61 bitrate=N/A speed=  15x    frame=18045 fps=360 q=-0.0 size=N/A time=00:12:32.62 bitrate=N/A speed=  15x    frame=18236 fps=360 q=-0.0 size=N/A time=00:12:40.59 bitrate=N/A speed=  15x    frame=18421 fps=360 q=-0.0 size=N/A time=00:12:48.30 bitrate=N/A speed=  15x    frame=18624 fps=361 q=-0.0 size=N/A time=00:12:56.77 bitrate=N/A speed=  15x    frame=18828 fps=361 q=-0.0 size=N/A time=00:13:05.28 bitrate=N/A speed=15.1x    frame=19027 fps=361 q=-0.0 size=N/A time=00:13:13.58 bitrate=N/A speed=15.1x    frame=19224 fps=361 q=-0.0 size=N/A time=00:13:21.80 bitrate=N/A speed=15.1x    frame=19424 fps=362 q=-0.0 size=N/A time=00:13:30.14 bitrate=N/A speed=15.1x    frame=19617 fps=362 q=-0.0 size=N/A time=00:13:38.19 bitrate=N/A speed=15.1x    frame=19813 fps=362 q=-0.0 size=N/A time=00:13:46.36 bitrate=N/A speed=15.1x    frame=20013 fps=362 q=-0.0 size=N/A time=00:13:54.70 bitrate=N/A speed=15.1x    frame=20212 fps=362 q=-0.0 size=N/A time=00:14:03.00 bitrate=N/A speed=15.1x    frame=20400 fps=362 q=-0.0 size=N/A time=00:14:10.85 bitrate=N/A speed=15.1x    frame=20589 fps=362 q=-0.0 size=N/A time=00:14:18.73 bitrate=N/A speed=15.1x    frame=20782 fps=362 q=-0.0 size=N/A time=00:14:26.78 bitrate=N/A speed=15.1x    frame=20972 fps=363 q=-0.0 size=N/A time=00:14:34.70 bitrate=N/A speed=15.1x    frame=21167 fps=363 q=-0.0 size=N/A time=00:14:42.84 bitrate=N/A speed=15.1x    frame=21359 fps=363 q=-0.0 size=N/A time=00:14:50.84 bitrate=N/A speed=15.1x    frame=21553 fps=363 q=-0.0 size=N/A time=00:14:58.93 bitrate=N/A speed=15.1x    frame=21755 fps=363 q=-0.0 size=N/A time=00:15:07.36 bitrate=N/A speed=15.1x    frame=21957 fps=363 q=-0.0 size=N/A time=00:15:15.78 bitrate=N/A speed=15.2x    frame=22155 fps=364 q=-0.0 size=N/A time=00:15:24.04 bitrate=N/A speed=15.2x    frame=22348 fps=364 q=-0.0 size=N/A time=00:15:32.09 bitrate=N/A speed=15.2x    frame=22549 fps=364 q=-0.0 size=N/A time=00:15:40.48 bitrate=N/A speed=15.2x    frame=22740 fps=364 q=-0.0 size=N/A time=00:15:48.44 bitrate=N/A speed=15.2x    frame=22926 fps=364 q=-0.0 size=N/A time=00:15:56.20 bitrate=N/A speed=15.2x    frame=23117 fps=364 q=-0.0 size=N/A time=00:16:04.17 bitrate=N/A speed=15.2x    frame=23307 fps=364 q=-0.0 size=N/A time=00:16:12.09 bitrate=N/A speed=15.2x    frame=23506 fps=364 q=-0.0 size=N/A time=00:16:20.39 bitrate=N/A speed=15.2x    frame=23698 fps=364 q=-0.0 size=N/A time=00:16:28.40 bitrate=N/A speed=15.2x    frame=23888 fps=364 q=-0.0 size=N/A time=00:16:36.32 bitrate=N/A speed=15.2x    frame=24095 fps=364 q=-0.0 size=N/A time=00:16:44.96 bitrate=N/A speed=15.2x    frame=24282 fps=364 q=-0.0 size=N/A time=00:16:52.76 bitrate=N/A speed=15.2x    frame=24473 fps=365 q=-0.0 size=N/A time=00:17:00.72 bitrate=N/A speed=15.2x    frame=24670 fps=365 q=-0.0 size=N/A time=00:17:08.94 bitrate=N/A speed=15.2x    frame=24852 fps=365 q=-0.0 size=N/A time=00:17:16.53 bitrate=N/A speed=15.2x    frame=25040 fps=365 q=-0.0 size=N/A time=00:17:24.37 bitrate=N/A speed=15.2x    frame=25242 fps=365 q=-0.0 size=N/A time=00:17:32.80 bitrate=N/A speed=15.2x    frame=25425 fps=365 q=-0.0 size=N/A time=00:17:40.43 bitrate=N/A speed=15.2x    frame=25614 fps=365 q=-0.0 size=N/A time=00:17:48.31 bitrate=N/A speed=15.2x    frame=25809 fps=365 q=-0.0 size=N/A time=00:17:56.45 bitrate=N/A speed=15.2x    frame=25996 fps=365 q=-0.0 size=N/A time=00:18:04.24 bitrate=N/A speed=15.2x    frame=26193 fps=365 q=-0.0 size=N/A time=00:18:12.46 bitrate=N/A speed=15.2x    frame=26402 fps=365 q=-0.0 size=N/A time=00:18:21.18 bitrate=N/A speed=15.2x    frame=26581 fps=365 q=-0.0 size=N/A time=00:18:28.64 bitrate=N/A speed=15.2x    frame=26769 fps=365 q=-0.0 size=N/A time=00:18:36.49 bitrate=N/A speed=15.2x    frame=26961 fps=365 q=-0.0 size=N/A time=00:18:44.49 bitrate=N/A speed=15.2x    frame=27149 fps=365 q=-0.0 size=N/A time=00:18:52.33 bitrate=N/A speed=15.2x    frame=27340 fps=365 q=-0.0 size=N/A time=00:19:00.30 bitrate=N/A speed=15.2x    frame=27528 fps=365 q=-0.0 size=N/A time=00:19:08.14 bitrate=N/A speed=15.2x    frame=27719 fps=365 q=-0.0 size=N/A time=00:19:16.11 bitrate=N/A speed=15.2x    frame=27905 fps=365 q=-0.0 size=N/A time=00:19:23.87 bitrate=N/A speed=15.2x    frame=28095 fps=365 q=-0.0 size=N/A time=00:19:31.79 bitrate=N/A speed=15.2x    frame=28295 fps=365 q=-0.0 size=N/A time=00:19:40.13 bitrate=N/A speed=15.2x    frame=28488 fps=365 q=-0.0 size=N/A time=00:19:48.18 bitrate=N/A speed=15.2x    frame=28686 fps=366 q=-0.0 size=N/A time=00:19:56.44 bitrate=N/A speed=15.2x    frame=28865 fps=365 q=-0.0 size=N/A time=00:20:03.91 bitrate=N/A speed=15.2x    frame=29047 fps=365 q=-0.0 size=N/A time=00:20:11.50 bitrate=N/A speed=15.2x    frame=29216 fps=365 q=-0.0 size=N/A time=00:20:18.55 bitrate=N/A speed=15.2x    frame=29410 fps=365 q=-0.0 size=N/A time=00:20:26.64 bitrate=N/A speed=15.2x    frame=29582 fps=365 q=-0.0 size=N/A time=00:20:33.81 bitrate=N/A speed=15.2x    frame=29757 fps=365 q=-0.0 size=N/A time=00:20:41.11 bitrate=N/A speed=15.2x    frame=29945 fps=365 q=-0.0 size=N/A time=00:20:48.95 bitrate=N/A speed=15.2x    frame=30115 fps=365 q=-0.0 size=N/A time=00:20:56.04 bitrate=N/A speed=15.2x    frame=30299 fps=365 q=-0.0 size=N/A time=00:21:03.72 bitrate=N/A speed=15.2x    frame=30495 fps=365 q=-0.0 size=N/A time=00:21:11.89 bitrate=N/A speed=15.2x    frame=30685 fps=365 q=-0.0 size=N/A time=00:21:19.82 bitrate=N/A speed=15.2x    frame=30883 fps=365 q=-0.0 size=N/A time=00:21:28.07 bitrate=N/A speed=15.2x    frame=31071 fps=365 q=-0.0 size=N/A time=00:21:35.91 bitrate=N/A speed=15.2x    frame=31270 fps=365 q=-0.0 size=N/A time=00:21:44.21 bitrate=N/A speed=15.2x    frame=31462 fps=365 q=-0.0 size=N/A time=00:21:52.22 bitrate=N/A speed=15.2x    frame=31652 fps=365 q=-0.0 size=N/A time=00:22:00.15 bitrate=N/A speed=15.2x    frame=31839 fps=365 q=-0.0 size=N/A time=00:22:07.95 bitrate=N/A speed=15.2x    frame=32029 fps=365 q=-0.0 size=N/A time=00:22:15.87 bitrate=N/A speed=15.2x    frame=32207 fps=365 q=-0.0 size=N/A time=00:22:23.30 bitrate=N/A speed=15.2x    frame=32395 fps=365 q=-0.0 size=N/A time=00:22:31.14 bitrate=N/A speed=15.2x    frame=32594 fps=365 q=-0.0 size=N/A time=00:22:39.44 bitrate=N/A speed=15.2x    frame=32754 fps=365 q=-0.0 size=N/A time=00:22:46.11 bitrate=N/A speed=15.2x    frame=32919 fps=364 q=-0.0 size=N/A time=00:22:52.99 bitrate=N/A speed=15.2x    frame=33108 fps=364 q=-0.0 size=N/A time=00:23:00.87 bitrate=N/A speed=15.2x    frame=33291 fps=364 q=-0.0 size=N/A time=00:23:08.51 bitrate=N/A speed=15.2x    frame=33475 fps=364 q=-0.0 size=N/A time=00:23:16.18 bitrate=N/A speed=15.2x    frame=33639 fps=364 q=-0.0 size=N/A time=00:23:23.02 bitrate=N/A speed=15.2x    frame=33782 fps=364 q=-0.0 size=N/A time=00:23:28.99 bitrate=N/A speed=15.2x    frame=33918 fps=363 q=-0.0 size=N/A time=00:23:34.66 bitrate=N/A speed=15.1x    frame=34102 fps=363 q=-0.0 size=N/A time=00:23:42.33 bitrate=N/A speed=15.1x    frame=34264 fps=363 q=-0.0 size=N/A time=00:23:49.09 bitrate=N/A speed=15.1x    frame=34401 fps=362 q=-0.0 size=N/A time=00:23:54.80 bitrate=N/A speed=15.1x    frame=34579 fps=362 q=-0.0 size=N/A time=00:24:02.23 bitrate=N/A speed=15.1x    [Parsed_ssim_16 @ 000001cc9f890840] SSIM Y:0.993704 (22.009558) U:0.993981 (22.205096) V:0.993610 (21.945214) All:0.993735 (22.030672)
[out#0/null @ 000001cc97d78a00] video:14903KiB audio:271276KiB subtitle:0KiB other streams:0KiB global headers:0KiB muxing overhead: unknown
frame=34683 fps=362 q=-0.0 Lsize=N/A time=00:24:06.57 bitrate=N/A speed=15.1x    
